# xmcd
#
# Track frame offsets:
# 150
# 6270
# 20867
# 33185
# 44002
# 51373
# 63164
# 74081
# 84069
# 97844
# 112004
# 121736
# 131077
# 146644
#
# Disc length: 2062 seconds
#
#
# Revision: 0
# Processed by: cddbd v1.5.2PL0 Copyright (c) Steve Scherf et al.
# Submitted via: FreeRIP 2.951 
#
DISCID=c3080c0e
DTITLE=koor - To God be the glory
DYEAR=1900
DGENRE=A Cappella
TTITLE0=a1
TTITLE1=a2
TTITLE2=a3
TTITLE3=a4
TTITLE4=a5
TTITLE5=a6
TTITLE6=a7
TTITLE7=a8
TTITLE8=a9
TTITLE9=a10
TTITLE10=a11
TTITLE11=a12
TTITLE12=a13
TTITLE13=a14
EXTD=fgfhd gjgf gfgjf
EXTT0=
EXTT1=
EXTT2=
EXTT3=
EXTT4=
EXTT5=
EXTT6=
EXTT7=
EXTT8=
EXTT9=
EXTT10=
EXTT11=
EXTT12=
EXTT13=
PLAYORDER=
